<svg xmlns="http://www.w3.org/2000/svg" viewBox="0 0 600 340" width="600" height="340">
  <defs>
    <linearGradient id="bg" x1="0%" y1="0%" x2="100%" y2="100%">
      <stop offset="0%"   stop-color="#0a0f1e"/>
      <stop offset="100%" stop-color="#111828"/>
    </linearGradient>
    <linearGradient id="card-grad" x1="0%" y1="0%" x2="100%" y2="100%">
      <stop offset="0%"   stop-color="#1a2236"/>
      <stop offset="100%" stop-color="#141c2e"/>
    </linearGradient>
    <linearGradient id="logo-grad" x1="0%" y1="0%" x2="100%" y2="100%">
      <stop offset="0%"   stop-color="#4a9eff"/>
      <stop offset="100%" stop-color="#1a6fd4"/>
    </linearGradient>
    <linearGradient id="shimmer" x1="0%" y1="0%" x2="100%" y2="0%">
      <stop offset="0%"   stop-color="#4a9eff" stop-opacity="0"/>
      <stop offset="40%"  stop-color="#4a9eff" stop-opacity="0.5"/>
      <stop offset="60%"  stop-color="#4a9eff" stop-opacity="0.5"/>
      <stop offset="100%" stop-color="#4a9eff" stop-opacity="0"/>
    </linearGradient>
    <linearGradient id="glow-h" x1="0%" y1="0%" x2="100%" y2="0%">
      <stop offset="0%"   stop-color="#4a9eff" stop-opacity="0"/>
      <stop offset="50%"  stop-color="#4a9eff" stop-opacity="0.08"/>
      <stop offset="100%" stop-color="#4a9eff" stop-opacity="0"/>
    </linearGradient>
    <filter id="logo-shadow">
      <feDropShadow dx="0" dy="4" stdDeviation="10" flood-color="#4a9eff" flood-opacity="0.35"/>
    </filter>
    <filter id="card-shadow">
      <feDropShadow dx="0" dy="8" stdDeviation="16" flood-color="#000" flood-opacity="0.5"/>
    </filter>
  </defs>
  <rect width="600" height="340" fill="url(#bg)"/>
  <g stroke="#4a9eff" stroke-width="0.4" opacity="0.07">
    <line x1="0" y1="60"  x2="600" y2="60"/>
    <line x1="0" y1="120" x2="600" y2="120"/>
    <line x1="0" y1="180" x2="600" y2="180"/>
    <line x1="0" y1="240" x2="600" y2="240"/>
    <line x1="0" y1="300" x2="600" y2="300"/>
    <line x1="100" y1="0" x2="100" y2="340"/>
    <line x1="200" y1="0" x2="200" y2="340"/>
    <line x1="300" y1="0" x2="300" y2="340"/>
    <line x1="400" y1="0" x2="400" y2="340"/>
    <line x1="500" y1="0" x2="500" y2="340"/>
  </g>
  <ellipse cx="300" cy="160" rx="280" ry="140" fill="url(#glow-h)"/>
  <rect x="60" y="52" width="220" height="236" rx="14" fill="url(#card-grad)" filter="url(#card-shadow)" stroke="rgba(74,158,255,0.12)" stroke-width="1"/>
  <rect x="60" y="52" width="220" height="3" rx="1" fill="url(#logo-grad)" opacity="0.7"/>
  <g transform="translate(88, 80)" filter="url(#logo-shadow)">
    <rect width="64" height="64" rx="14" fill="url(#logo-grad)"/>
    <text x="32" y="46" font-family="Georgia, serif" font-size="38" font-weight="700" text-anchor="middle" fill="#ffffff" opacity="0.95">C</text>
    <text x="46" y="56" font-family="Georgia, serif" font-size="18" font-weight="700" text-anchor="middle" fill="rgba(255,255,255,0.75)">S</text>
  </g>
  <text x="170" y="168" font-family="'Segoe UI', Arial, sans-serif" font-size="11" font-weight="700" text-anchor="middle" fill="#e8f0ff" letter-spacing="1.5">CONSULTIVA</text>
  <text x="170" y="182" font-family="'Segoe UI', Arial, sans-serif" font-size="9" font-weight="400" text-anchor="middle" fill="rgba(74,158,255,0.8)" letter-spacing="2.5">SERVICES</text>
  <line x1="88" y1="196" x2="252" y2="196" stroke="rgba(74,158,255,0.2)" stroke-width="1"/>
  <text x="88" y="212" font-family="'Segoe UI', Arial, sans-serif" font-size="7.5" fill="rgba(255,255,255,0.35)" letter-spacing="1.5">BRAND PALETTE</text>
  <rect x="88"  y="218" width="26" height="14" rx="4" fill="#1a6fd4"/>
  <rect x="118" y="218" width="26" height="14" rx="4" fill="#4a9eff"/>
  <rect x="148" y="218" width="26" height="14" rx="4" fill="#0a0f1e"/>
  <rect x="178" y="218" width="26" height="14" rx="4" fill="#e8f0ff"/>
  <rect x="208" y="218" width="26" height="14" rx="4" fill="#c9a97a"/>
  <text x="88" y="248" font-family="'Segoe UI', Arial, sans-serif" font-size="7.5" fill="rgba(255,255,255,0.35)" letter-spacing="1.5">TYPOGRAPHY</text>
  <text x="88" y="263" font-family="Georgia, 'Times New Roman', serif" font-size="13" font-weight="700" fill="#e8f0ff" letter-spacing="0.5">Aa  Bb  Cc</text>
  <text x="88" y="276" font-family="'Segoe UI', Arial, sans-serif" font-size="9" fill="rgba(255,255,255,0.4)" letter-spacing="0.5">Regular  Medium  Bold</text>
  <rect x="308" y="58" width="154" height="90" rx="8" fill="#141c2e" stroke="rgba(74,158,255,0.15)" stroke-width="1" filter="url(#card-shadow)"/>
  <rect x="308" y="58" width="6" height="90" rx="3" fill="url(#logo-grad)" opacity="0.8"/>
  <text x="324" y="88" font-family="Georgia, serif" font-size="11" font-weight="700" fill="#e8f0ff">Consultiva</text>
  <text x="324" y="101" font-family="'Segoe UI', Arial, sans-serif" font-size="8" fill="rgba(74,158,255,0.85)" letter-spacing="1">SERVICES</text>
  <line x1="324" y1="108" x2="448" y2="108" stroke="rgba(74,158,255,0.15)" stroke-width="0.8"/>
  <text x="324" y="120" font-family="'Segoe UI', Arial, sans-serif" font-size="7.5" fill="rgba(255,255,255,0.4)">consultiveservices.com</text>
  <text x="324" y="131" font-family="'Segoe UI', Arial, sans-serif" font-size="7.5" fill="rgba(255,255,255,0.4)">hello@consultiveservices.com</text>
  <rect x="308" y="162" width="154" height="110" rx="8" fill="#141c2e" stroke="rgba(74,158,255,0.15)" stroke-width="1" filter="url(#card-shadow)"/>
  <rect x="308" y="162" width="154" height="20" rx="8" fill="url(#logo-grad)" opacity="0.25"/>
  <rect x="308" y="174" width="154" height="8" rx="0" fill="url(#logo-grad)" opacity="0.25"/>
  <text x="322" y="175" font-family="Georgia, serif" font-size="9" font-weight="700" fill="#e8f0ff" opacity="0.9">CONSULTIVA SERVICES</text>
  <rect x="322" y="188" width="110" height="5" rx="2" fill="rgba(255,255,255,0.12)"/>
  <rect x="322" y="197" width="126" height="5" rx="2" fill="rgba(255,255,255,0.09)"/>
  <rect x="322" y="206" width="100" height="5" rx="2" fill="rgba(255,255,255,0.09)"/>
  <rect x="322" y="215" width="118" height="5" rx="2" fill="rgba(255,255,255,0.09)"/>
  <rect x="322" y="224" width="90"  height="5" rx="2" fill="rgba(255,255,255,0.09)"/>
  <rect x="322" y="240" width="60"  height="5" rx="2" fill="rgba(74,158,255,0.3)"/>
  <rect x="322" y="249" width="50"  height="5" rx="2" fill="rgba(255,255,255,0.07)"/>
  <rect x="308" y="286" width="154" height="44" rx="8" fill="#141c2e" stroke="rgba(74,158,255,0.15)" stroke-width="1" filter="url(#card-shadow)"/>
  <rect x="308" y="286" width="154" height="12" rx="8" fill="rgba(74,158,255,0.12)"/>
  <circle cx="320" cy="292" r="2" fill="rgba(255,100,100,0.5)"/>
  <circle cx="328" cy="292" r="2" fill="rgba(255,200,50,0.5)"/>
  <circle cx="336" cy="292" r="2" fill="rgba(50,200,100,0.5)"/>
  <rect x="344" y="289" width="100" height="6" rx="3" fill="rgba(255,255,255,0.08)"/>
  <rect x="316" y="304" width="80" height="5"  rx="2" fill="rgba(74,158,255,0.35)"/>
  <rect x="316" y="313" width="130" height="3" rx="1" fill="rgba(255,255,255,0.1)"/>
  <rect x="316" y="320" width="110" height="3" rx="1" fill="rgba(255,255,255,0.07)"/>
  <rect x="0" y="310" width="600" height="30" fill="rgba(0,0,0,0.3)"/>
  <rect x="0" y="310" width="600" height="1" fill="url(#shimmer)"/>
  <text x="300" y="330" font-family="'Segoe UI', Arial, sans-serif" font-size="10" font-weight="600" text-anchor="middle" letter-spacing="4" fill="rgba(255,255,255,0.55)">BRAND IDENTITY  WEB  STATIONERY</text>
  <rect x="0" y="0" width="600" height="2" fill="url(#shimmer)"/>
  <g stroke="#4a9eff" stroke-width="1.2" fill="none" opacity="0.3">
    <path d="M 18 18 L 18 40"/><path d="M 18 18 L 40 18"/>
    <path d="M 582 322 L 582 300"/><path d="M 582 322 L 560 322"/>
  </g>
</svg>
