<svg xmlns="http://www.w3.org/2000/svg" viewBox="0 0 40 40">
  <rect width="40" height="40" rx="9" fill="white"/>
  <!-- Accurate Google G: red top-left arc, yellow bottom-left, green bottom-right, blue right+bar -->
  <path d="M20 8a12 12 0 0 0-12 12A12 12 0 0 0 20 32a12 12 0 0 0 12-12v-1H20v4h7.5A8 8 0 0 1 20 28a8 8 0 0 1-8-8 8 8 0 0 1 8-8 8 8 0 0 1 5.2 1.9l3-3A12 12 0 0 0 20 8z" fill="none"/>
  <!-- Red arc top -->
  <path d="M8.6 14.7A12 12 0 0 1 20 8a12 12 0 0 1 8.2 3.2l-3 3A8 8 0 0 0 20 12a8 8 0 0 0-7.4 5z" fill="#EA4335"/>
  <!-- Yellow arc left-bottom -->
  <path d="M12.6 19a8 8 0 0 0 .2 2l-4 3.1A12 12 0 0 1 8 20a12 12 0 0 1 .6-5.3z" fill="#FBBC05"/>
  <!-- Green arc bottom -->
  <path d="M20 28a8 8 0 0 1-7.2-4.5l4-3.1A4 4 0 0 0 20 24a4 4 0 0 0 2.5-.9l3.5 2.7A12 12 0 0 1 20 28z" fill="#34A853"/>
  <!-- Blue bar + arc -->
  <path d="M32 20v-1H20v4h7.5c-.5 1.4-1.4 2.6-2.5 3.5l3.5 2.8A12 12 0 0 0 32 20z" fill="#4285F4"/>
  <path d="M28.2 11.2A12 12 0 0 0 20 8a12 12 0 0 0-7.4 2.7l3 2.3A8 8 0 0 1 20 12a8 8 0 0 1 5.2 1.9z" fill="#EA4335"/>
</svg>
