<svg xmlns="http://www.w3.org/2000/svg" viewBox="0 0 40 40">
  <rect width="40" height="40" rx="9" fill="white"/>
  <!-- Official Google "G" — standard 4-color paths, centered at 8,8 over a 24px grid -->
  <g transform="translate(8,8)">
    <path d="M23.52 12.273c0-.851-.076-1.67-.218-2.455H12v4.642h6.458a5.52 5.52 0 0 1-2.394 3.622v3.01h3.878c2.27-2.09 3.578-5.17 3.578-8.819z" fill="#4285F4"/>
    <path d="M12 24c3.24 0 5.956-1.075 7.942-2.907l-3.878-3.011c-1.075.72-2.45 1.145-4.064 1.145-3.125 0-5.77-2.111-6.715-4.948H1.276v3.11A11.995 11.995 0 0 0 12 24z" fill="#34A853"/>
    <path d="M5.285 14.279a7.213 7.213 0 0 1 0-4.558v-3.11H1.276a12.005 12.005 0 0 0 0 10.778l4.009-3.11z" fill="#FBBC05"/>
    <path d="M12 4.773c1.762 0 3.343.605 4.587 1.794l3.44-3.44C17.95 1.19 15.235 0 12 0A11.995 11.995 0 0 0 1.276 6.611l4.009 3.11C6.23 6.884 8.875 4.773 12 4.773z" fill="#EA4335"/>
  </g>
</svg>
