<svg xmlns="http://www.w3.org/2000/svg" viewBox="0 0 40 40">
  <rect width="40" height="40" rx="9" fill="white"/>
  <path d="M20 8c-6.6 0-12 5.4-12 12s5.4 12 12 12 12-5.4 12-12H20V14h11.8c.1.6.2 1.3.2 2z" fill="#4285F4"/>
  <path d="M8 20c0-2.1.5-4 1.4-5.7L5.6 11C3.9 13.5 3 16.6 3 20s.9 6.5 2.6 9l3.8-3.3C8.5 24 8 22.1 8 20z" fill="#34A853"/>
  <path d="M20 32c3.3 0 6-1.1 8-2.9l-3.8-3.2c-1.1.8-2.6 1.3-4.2 1.3-3.2 0-5.9-2.1-6.9-5.1l-3.8 3c1.8 3.6 5.5 6.9 10.7 6.9z" fill="#FBBC05"/>
  <path d="M9.4 14.3C10.5 11.3 13.2 9.2 16.4 8.8l-.4-4.8C10.5 4.7 5.8 8.7 4 14z" fill="#EA4335"/>
</svg>
