<svg xmlns="http://www.w3.org/2000/svg" viewBox="0 0 40 40">
  <rect width="40" height="40" rx="9" fill="#7AB55C"/>
  <path d="M27 11.5c0 0-.2-.1-.5-.1-.3 0-2-.3-2-.3s-1.3-1.3-1.5-1.5c-.2-.2-.5-.1-.6-.1L21 10c-.3-.9-1-1.7-2-2.2C18.5 7.3 18 7.2 17.5 7c-.1 0-.1 0-.2.1-.5.2-1 .5-1.3 1-.7 1-1 2.5-1.1 3.5l-2.5.8c-.3.1-.3.1-.3.4L11 24l11 2 6-1.5V11.5zM23 11l-1.5.5c0-.6-.1-1.4-.3-2 .8.2 1.4.9 1.8 1.5zm-2.8-.4l-2.5.8c.3-1 .7-2 1.2-2.5.2-.2.5-.5.8-.6.6.6.7 1.6.5 2.3zm-2.2-3c.2 0 .4.1.6.2-.3.1-.6.4-.8.6-.6.7-1 1.8-1.3 2.9l-1.9.6c.5-1.8 1.5-4 3.4-4.3z" fill="white"/>
  <path d="M26.5 11.1c-.3 0-2-.3-2-.3s-1.3-1.3-1.5-1.5c0-.1-.1-.1-.2-.1v18.5l6-1.5L30 13l-3.5-1.9z" fill="#5A8A3C"/>
</svg>
